<?xml version="1.0" encoding="utf-8"?>
<!-- Generator: Adobe Illustrator 16.0.4, SVG Export Plug-In . SVG Version: 6.00 Build 0)  -->
<!DOCTYPE svg PUBLIC "-//W3C//DTD SVG 1.1//EN" "http://www.w3.org/Graphics/SVG/1.1/DTD/svg11.dtd">
<svg version="1.1" id="Layer_1" xmlns="http://www.w3.org/2000/svg" xmlns:xlink="http://www.w3.org/1999/xlink" x="0px" y="0px"
	 width="28px" height="40px" viewBox="0 0 28 40" style="enable-background:new 0 0 28 40;" xml:space="preserve">
<style type="text/css">
<![CDATA[
	.st0{fill:#FFFFFF;}
	.st1{fill:#009DD9;}
]]>
</style>
<g>
	<g id="brand_1_">
		<rect class="st1" width="28" height="40"/>
	</g>
	<g>
		<path class="st0" d="M11.396,16.755c0.555-0.55,1.025-0.953,1.479-1.233c0.448-0.29,1.014-0.438,1.689-0.438
			c1.074,0,1.83,0.37,2.285,1.094c0.447,0.731,0.676,1.694,0.676,2.886v7.764c0,0.332-0.164,0.537-0.49,0.636
			c-0.332,0.091-0.772,0.158-1.328,0.201V28H22v-0.277c-0.188-0.018-0.391-0.049-0.604-0.081c-0.215-0.027-0.414-0.071-0.6-0.118
			c-0.184-0.058-0.346-0.126-0.479-0.229c-0.133-0.104-0.199-0.231-0.199-0.374v-9.06c0-1.397-0.318-2.538-0.954-3.426
			c-0.64-0.881-1.55-1.321-2.743-1.321c-0.557,0-1.09,0.107-1.601,0.327c-0.515,0.211-0.991,0.482-1.417,0.817
			c-0.435,0.323-0.818,0.688-1.16,1.093c-0.342,0.398-0.618,0.773-0.848,1.125"/>
		<path class="st0" d="M10.626,17.326v9.561c0.039,0.207,0.112,0.357,0.218,0.446c0.101,0.099,0.222,0.167,0.367,0.201
			c0.146,0.043,0.309,0.068,0.493,0.08c0.183,0.012,0.381,0.035,0.586,0.08V28H6.343v-0.306c0.473-0.045,0.878-0.135,1.216-0.28
			c0.337-0.147,0.505-0.38,0.505-0.705V16.107c0-0.171-0.012-0.289-0.045-0.376c-0.029-0.078-0.115-0.17-0.262-0.271
			c-0.184-0.104-0.398-0.224-0.648-0.357c-0.24-0.132-0.49-0.253-0.734-0.356v-0.181l4.035-1.451h0.211L10.626,17.326z"/>
	</g>
</g>
</svg>
