<?xml version="1.0" encoding="utf-8"?>
<!-- Generator: Adobe Illustrator 16.0.4, SVG Export Plug-In . SVG Version: 6.00 Build 0)  -->
<!DOCTYPE svg PUBLIC "-//W3C//DTD SVG 1.1//EN" "http://www.w3.org/Graphics/SVG/1.1/DTD/svg11.dtd">
<svg version="1.1" id="Layer_1" xmlns="http://www.w3.org/2000/svg" xmlns:xlink="http://www.w3.org/1999/xlink" x="0px" y="0px"
	 width="16px" height="16px" viewBox="0 0 16 16" style="enable-background:new 0 0 16 16;" xml:space="preserve">
<style type="text/css">
<![CDATA[
	.st0{fill-rule:evenodd;clip-rule:evenodd;fill:#354052;}
]]>
</style>
<g>
	<g>
		<path class="st0" d="M16,8c0,4.418-3.582,8-8,8s-8-3.582-8-8s3.582-8,8-8S16,3.582,16,8z M15,8c0-3.866-3.134-7-7-7
			C4.133,1,1,4.134,1,8s3.133,7,7,7C11.866,15,15,11.866,15,8z"/>
		<polygon class="st0" points="3.758,5.172 5.172,3.758 8,6.586 10.828,3.757 12.242,5.172 9.414,8 12.242,10.828 10.828,12.242 
			8,9.414 5.172,12.242 3.756,10.828 6.586,8 		"/>
	</g>
	<g>
	</g>
</g>
</svg>
