<?xml version="1.0" encoding="utf-8"?>
<!-- Generator: Adobe Illustrator 16.0.4, SVG Export Plug-In . SVG Version: 6.00 Build 0)  -->
<!DOCTYPE svg PUBLIC "-//W3C//DTD SVG 1.1//EN" "http://www.w3.org/Graphics/SVG/1.1/DTD/svg11.dtd">
<svg version="1.1" id="Layer_1" xmlns="http://www.w3.org/2000/svg" xmlns:xlink="http://www.w3.org/1999/xlink" x="0px" y="0px"
	 width="126px" height="96px" viewBox="0 0 126 96" enable-background="new 0 0 126 96" xml:space="preserve">
<rect fill="#FFFFFF" width="126" height="96"/>
<rect x="6" y="9" fill="#DDDDDD" width="1" height="81"/>
<rect x="6" y="89" fill="#DDDDDD" width="112" height="1"/>
<rect x="6" y="79" fill="#DDDDDD" width="112" height="1"/>
<rect x="6" y="69" fill="#DDDDDD" width="112" height="1"/>
<rect x="6" y="59" fill="#DDDDDD" width="112" height="1"/>
<rect x="6" y="49" fill="#DDDDDD" width="112" height="1"/>
<rect x="6" y="39" fill="#DDDDDD" width="112" height="1"/>
<rect x="6" y="29" fill="#DDDDDD" width="112" height="1"/>
<rect x="6" y="19" fill="#DDDDDD" width="112" height="1"/>
<rect x="6" y="9" fill="#DDDDDD" width="112" height="1"/>
<rect x="109" y="11" fill="#1AC44A" width="6" height="78"/>
<rect x="100" y="16" fill="#1AC44A" width="6" height="73"/>
<rect x="91" y="27" fill="#1AC44A" width="6" height="62"/>
<rect x="82" y="25" fill="#1AC44A" width="6" height="64"/>
<rect x="73" y="28" fill="#1AC44A" width="6" height="61"/>
<rect x="64" y="34" fill="#1AC44A" width="6" height="55"/>
<rect x="55" y="34" fill="#1AC44A" width="6" height="55"/>
<rect x="46" y="37" fill="#1AC44A" width="6" height="52"/>
<rect x="37" y="41" fill="#1AC44A" width="6" height="48"/>
<rect x="28" y="40" fill="#1AC44A" width="6" height="49"/>
<rect x="19" y="41" fill="#1AC44A" width="6" height="48"/>
<rect x="10" y="44" fill="#1AC44A" width="6" height="45"/>
</svg>
