<?xml version="1.0" encoding="utf-8"?>
<!-- Generator: Adobe Illustrator 16.0.4, SVG Export Plug-In . SVG Version: 6.00 Build 0)  -->
<!DOCTYPE svg PUBLIC "-//W3C//DTD SVG 1.1//EN" "http://www.w3.org/Graphics/SVG/1.1/DTD/svg11.dtd">
<svg version="1.1" id="Layer_1" xmlns="http://www.w3.org/2000/svg" xmlns:xlink="http://www.w3.org/1999/xlink" x="0px" y="0px"
	 width="16px" height="16px" viewBox="0 0 16 16" style="enable-background:new 0 0 16 16;" xml:space="preserve">
<style type="text/css">
<![CDATA[
	.st0{fill-rule:evenodd;clip-rule:evenodd;fill:#354052;}
]]>
</style>
<g>
	<g>
		<path class="st0" d="M2,8v6c0,1.104,0.896,2,2,2h8c1.105,0,2-0.896,2-2V8c0-1.104-0.895-2-2-2V4c0-2.209-1.79-4-4-4
			C5.793,0,4,1.791,4,4v2C2.896,6,2,6.896,2,8z M7,12c0,0.553,0.447,1,1,1l0,0c0.553,0,1-0.447,1-1v-2c0-0.553-0.447-1-1-1l0,0
			c-0.553,0-1,0.447-1,1V12z M4,14.5c-0.276,0-0.5-0.224-0.5-0.5V8c0-0.276,0.224-0.5,0.5-0.5h8c0.276,0,0.5,0.224,0.5,0.5v6
			c0,0.276-0.224,0.5-0.5,0.5H4z M5.5,4c0-1.381,1.119-2.5,2.5-2.5s2.5,1.119,2.5,2.5v2h-5V4z"/>
	</g>
</g>
</svg>
