<?xml version="1.0" encoding="utf-8"?>
<!-- Generator: Adobe Illustrator 16.0.4, SVG Export Plug-In . SVG Version: 6.00 Build 0)  -->
<!DOCTYPE svg PUBLIC "-//W3C//DTD SVG 1.1//EN" "http://www.w3.org/Graphics/SVG/1.1/DTD/svg11.dtd">
<svg version="1.1" xmlns="http://www.w3.org/2000/svg" xmlns:xlink="http://www.w3.org/1999/xlink" x="0px" y="0px" width="16px"
	 height="16px" viewBox="0 0 16 16" enable-background="new 0 0 16 16" xml:space="preserve">
<g id="menu" display="none">
	<g id="hamburger">
		<g display="inline">
			<path fill-rule="evenodd" clip-rule="evenodd" d="M1.5,4c0-0.553,0.41-1,0.916-1h11.168C14.09,3,14.5,3.447,14.5,4
				s-0.41,1-0.916,1H2.416C1.91,5,1.5,4.553,1.5,4z"/>
		</g>
		<g display="inline">
			<path fill-rule="evenodd" clip-rule="evenodd" d="M1.5,8c0-0.553,0.41-1,0.916-1h11.168C14.09,7,14.5,7.447,14.5,8
				s-0.41,1-0.916,1H2.416C1.91,9,1.5,8.553,1.5,8z"/>
		</g>
		<g display="inline">
			<path fill-rule="evenodd" clip-rule="evenodd" d="M1.5,12c0-0.553,0.41-1,0.916-1h11.168c0.506,0,0.916,0.447,0.916,1
				s-0.41,1-0.916,1H2.416C1.91,13,1.5,12.553,1.5,12z"/>
		</g>
	</g>
	<g id="applications">
		<circle display="inline" fill-rule="evenodd" clip-rule="evenodd" cx="2" cy="2" r="2"/>
		<circle display="inline" fill-rule="evenodd" clip-rule="evenodd" cx="2" cy="8" r="2"/>
		<circle display="inline" fill-rule="evenodd" clip-rule="evenodd" cx="2" cy="14" r="2"/>
		<circle display="inline" fill-rule="evenodd" clip-rule="evenodd" cx="8" cy="2" r="2"/>
		<circle display="inline" fill-rule="evenodd" clip-rule="evenodd" cx="8" cy="8" r="2"/>
		<circle display="inline" fill-rule="evenodd" clip-rule="evenodd" cx="8" cy="14" r="2"/>
		<circle display="inline" fill-rule="evenodd" clip-rule="evenodd" cx="14" cy="2" r="2"/>
		<circle display="inline" fill-rule="evenodd" clip-rule="evenodd" cx="14" cy="8" r="2"/>
		<circle display="inline" fill-rule="evenodd" clip-rule="evenodd" cx="14" cy="14" r="2"/>
	</g>
	<g id="search">
		<path display="inline" fill-rule="evenodd" clip-rule="evenodd" d="M9.673,10.733C8.656,11.523,7.387,12,6,12
			c-3.313,0-6-2.687-6-6s2.687-6,6-6c3.314,0,6,2.687,6,6c0,1.387-0.478,2.657-1.267,3.673l5.077,5.077
			c0.269,0.269,0.249,0.724-0.045,1.017c-0.292,0.293-0.748,0.312-1.016,0.044L9.673,10.733z M6,1.5C3.515,1.5,1.5,3.515,1.5,6
			s2.015,4.5,4.5,4.5c2.485,0,4.5-2.015,4.5-4.5S8.485,1.5,6,1.5z"/>
	</g>
	<g id="alerts">
		<g display="inline">
			<path d="M15,13.5v-1l-1.975-2V6.975c0-2.52-1.375-4.629-3.77-5.187V1.23C9.256,0.549,8.695,0,8,0S6.744,0.549,6.744,1.23v0.558
				C4.35,2.346,3,4.455,3,6.975V10.5l-2,2v1H15z"/>
		</g>
		<path display="inline" d="M6.5,14.5C6.5,15.328,7.172,16,8,16c0.828,0,1.5-0.672,1.5-1.5H6.5z"/>
	</g>
	<g id="settings">
		<g display="inline">
			<g>
				<path d="M8.707,1l0.371,1.588L9.2,3.115l0.508,0.186c0.138,0.05,0.271,0.104,0.4,0.166l0.492,0.232l0.462-0.287l1.387-0.861
					l1,0.999l-0.861,1.386l-0.285,0.46l0.229,0.49c0.062,0.131,0.116,0.265,0.164,0.399l0.185,0.512l0.529,0.124L15,7.293v1.414
					l-1.59,0.372l-0.528,0.123l-0.185,0.511c-0.05,0.137-0.105,0.271-0.166,0.401l-0.229,0.49l0.285,0.459l0.861,1.387l-1,1
					l-1.387-0.861l-0.461-0.286l-0.491,0.23c-0.131,0.062-0.265,0.116-0.401,0.166L9.2,12.883L9.077,13.41L8.707,15H7.293
					l-0.372-1.59l-0.124-0.527l-0.509-0.185c-0.138-0.051-0.274-0.108-0.407-0.169l-0.488-0.225l-0.457,0.283L3.55,13.449l-0.999-1
					l0.86-1.387l0.284-0.458l-0.226-0.489c-0.063-0.136-0.12-0.276-0.172-0.416l-0.188-0.5l-0.52-0.121L1.001,8.707l0-1.414
					l1.588-0.372l0.522-0.122l0.187-0.503c0.053-0.142,0.113-0.283,0.174-0.419L3.693,5.39L3.411,4.936L2.549,3.55l1-1l1.387,0.861
					l0.457,0.284L5.882,3.47c0.137-0.063,0.277-0.12,0.416-0.172L6.799,3.11l0.122-0.521L7.293,1H8.707 M9.5,0h-3L5.947,2.361
					c-0.162,0.061-0.324,0.127-0.483,0.2L3.403,1.282L1.281,3.403l1.28,2.061C2.49,5.621,2.422,5.783,2.361,5.947L0,6.5l0.001,3
					l2.359,0.552c0.061,0.162,0.127,0.325,0.201,0.483l-1.278,2.061l2.12,2.122l2.061-1.28c0.157,0.072,0.319,0.141,0.483,0.2
					L6.5,16h3l0.551-2.362c0.164-0.06,0.326-0.126,0.484-0.2l2.061,1.279l2.121-2.121l-1.279-2.061
					c0.073-0.157,0.141-0.318,0.2-0.483L16,9.5v-3l-2.363-0.553c-0.059-0.163-0.125-0.324-0.199-0.483l1.279-2.06l-2.121-2.121
					l-2.061,1.279c-0.157-0.074-0.318-0.141-0.484-0.201L9.5,0L9.5,0z"/>
			</g>
		</g>
		<g display="inline">
			<g>
				<path d="M8,6c1.103,0,2,0.897,2,2c0,1.103-0.897,2-2,2c-1.103,0-2-0.897-2-2C6,6.897,6.897,6,8,6 M8,5C6.343,5,5,6.345,5,8
					s1.343,3,3,3c1.655,0,3-1.345,3-3S9.655,5,8,5L8,5z"/>
			</g>
		</g>
	</g>
	<g id="settings_x5F_fill">
		<g display="inline">
			<g>
				<path fill-rule="evenodd" clip-rule="evenodd" d="M6.5,0h3l0.551,2.361c0.166,0.061,0.327,0.127,0.484,0.201l2.061-1.279
					l2.121,2.121l-1.279,2.06c0.074,0.159,0.141,0.32,0.199,0.483L16,6.5v3l-2.362,0.552c-0.06,0.165-0.127,0.326-0.2,0.483
					l1.279,2.061l-2.121,2.121l-2.061-1.279c-0.158,0.074-0.32,0.141-0.484,0.2L9.5,16h-3l-0.553-2.362
					c-0.164-0.06-0.326-0.128-0.483-0.2l-2.061,1.28l-2.12-2.122l1.278-2.061c-0.073-0.158-0.14-0.321-0.201-0.483L0.001,9.5L0,6.5
					l2.361-0.553C2.422,5.783,2.49,5.621,2.562,5.464l-1.28-2.061l2.122-2.121l2.061,1.279c0.159-0.073,0.322-0.14,0.483-0.2L6.5,0z
					 M8,10c1.104,0,2-0.896,2-2S9.104,6,8,6C6.896,6,6,6.896,6,8S6.896,10,8,10z"/>
			</g>
		</g>
	</g>
	<g id="info">
		<path display="inline" fill-rule="evenodd" clip-rule="evenodd" d="M16,8c0,4.418-3.582,8-8,8s-8-3.582-8-8s3.582-8,8-8
			S16,3.582,16,8z M15,8c0-3.866-3.134-7-7-7C4.133,1,1,4.134,1,8s3.133,7,7,7C11.866,15,15,11.866,15,8z"/>
		<rect x="7" y="7" display="inline" fill-rule="evenodd" clip-rule="evenodd" width="2" height="6"/>
		<circle display="inline" fill-rule="evenodd" clip-rule="evenodd" cx="8" cy="4" r="1.5"/>
	</g>
	<path id="info_x5F_fill" fill-rule="evenodd" clip-rule="evenodd" d="M16,8c0,4.418-3.582,8-8,8s-8-3.582-8-8s3.582-8,8-8
		S16,3.582,16,8z M9,7H7v6h2V7z M8,2.5C7.172,2.5,6.5,3.172,6.5,4S7.172,5.5,8,5.5c0.828,0,1.5-0.672,1.5-1.5S8.828,2.5,8,2.5z"/>
	<g id="help">
		<path display="inline" fill-rule="evenodd" clip-rule="evenodd" d="M16,8c0,4.418-3.582,8-8,8s-8-3.582-8-8s3.582-8,8-8
			S16,3.582,16,8z M15,8c0-3.866-3.134-7-7-7C4.133,1,1,4.134,1,8s3.133,7,7,7C11.866,15,15,11.866,15,8z"/>
		<g display="inline">
			<path d="M4.927,6.52c0.038-1.787,1.212-3.086,3.036-3.086c2.36,0,3.11,1.45,3.11,2.412c0,1.211-0.513,1.699-1.05,2.111
				C9.486,8.356,8.913,8.681,8.8,9.418v0.475H7.113V9.331C7.188,8.244,7.7,7.757,8.2,7.369c0.487-0.388,0.912-0.674,0.912-1.35
				c0-0.762-0.399-1.124-1.062-1.124c-0.899,0-1.273,0.737-1.287,1.624H4.927z M6.938,10.643h1.961v1.924H6.938V10.643z"/>
		</g>
	</g>
	<path id="help_x5F_fill" fill-rule="evenodd" clip-rule="evenodd" d="M16,8c0,4.418-3.582,8-8,8s-8-3.582-8-8s3.582-8,8-8
		S16,3.582,16,8z M4.927,6.52c0.038-1.787,1.212-3.086,3.036-3.086c2.36,0,3.11,1.45,3.11,2.412c0,1.211-0.513,1.699-1.05,2.111
		C9.486,8.356,8.913,8.681,8.8,9.418v0.475H7.113V9.331C7.188,8.244,7.7,7.757,8.2,7.369c0.487-0.388,0.912-0.674,0.912-1.35
		c0-0.762-0.399-1.124-1.062-1.124c-0.899,0-1.273,0.737-1.287,1.624H4.927z M6.938,10.643h1.961v1.924H6.938V10.643z"/>
	<g id="options" display="inline">
		<circle fill-rule="evenodd" clip-rule="evenodd" cx="8" cy="2" r="2"/>
		<circle fill-rule="evenodd" clip-rule="evenodd" cx="8" cy="8" r="2"/>
		<circle fill-rule="evenodd" clip-rule="evenodd" cx="8" cy="14" r="2"/>
	</g>
</g>
<g id="action">
	<g>
		<path fill-rule="evenodd" clip-rule="evenodd" d="M16,8c0,4.418-3.582,8-8,8s-8-3.582-8-8s3.582-8,8-8S16,3.582,16,8z M15,8
			c0-3.866-3.134-7-7-7S1,4.134,1,8s3.134,7,7,7S15,11.866,15,8z"/>
		<polygon fill-rule="evenodd" clip-rule="evenodd" points="3.758,5.172 5.172,3.758 8,6.586 10.828,3.757 12.242,5.172 9.414,8 
			12.242,10.828 10.828,12.242 8,9.414 5.172,12.242 3.757,10.828 6.586,8 		"/>
	</g>
	<g>
	</g>
	<g>
	</g>
	<g>
	</g>
	<g>
	</g>
	<g>
	</g>
	<g>
	</g>
	<g>
	</g>
	<g>
	</g>
	<g>
	</g>
	<g>
	</g>
	<g>
	</g>
	<g>
	</g>
	<g>
	</g>
	<g>
	</g>
	<g>
	</g>
</g>
</svg>
