<?xml version="1.0" encoding="utf-8"?>
<!-- Generator: Adobe Illustrator 16.0.4, SVG Export Plug-In . SVG Version: 6.00 Build 0)  -->
<!DOCTYPE svg PUBLIC "-//W3C//DTD SVG 1.1//EN" "http://www.w3.org/Graphics/SVG/1.1/DTD/svg11.dtd">
<svg version="1.1" id="Layer_1" xmlns="http://www.w3.org/2000/svg" xmlns:xlink="http://www.w3.org/1999/xlink" x="0px" y="0px"
	 width="16px" height="16px" viewBox="0 0 16 16" style="enable-background:new 0 0 16 16;" xml:space="preserve">
<style type="text/css">
<![CDATA[
	.st0{fill-rule:evenodd;clip-rule:evenodd;fill:#354052;}
]]>
</style>
<g>
	<g>
		<path class="st0" d="M15,8c0,3.866-3.134,7-7,7c-3.867,0-7-3.134-7-7s3.133-7,7-7C11.866,1,15,4.134,15,8z M8,2
			C4.688,2,2,4.687,2,8s2.688,6,6,6c3.314,0,6-2.687,6-6S11.314,2,8,2z M11.5,8c0,1.933-1.567,3.5-3.5,3.5
			c-1.934,0-3.5-1.567-3.5-3.5S6.066,4.5,8,4.5C9.933,4.5,11.5,6.067,11.5,8z"/>
	</g>
	<g>
	</g>
</g>
</svg>
