<?xml version="1.0" encoding="utf-8"?>
<!-- Generator: Adobe Illustrator 16.0.4, SVG Export Plug-In . SVG Version: 6.00 Build 0)  -->
<!DOCTYPE svg PUBLIC "-//W3C//DTD SVG 1.1//EN" "http://www.w3.org/Graphics/SVG/1.1/DTD/svg11.dtd">
<svg version="1.1" id="Layer_1" xmlns="http://www.w3.org/2000/svg" xmlns:xlink="http://www.w3.org/1999/xlink" x="0px" y="0px"
	 width="16px" height="16px" viewBox="0 0 16 16" style="enable-background:new 0 0 16 16;" xml:space="preserve">
<style type="text/css">
<![CDATA[
	.st0{fill:#354052;}
]]>
</style>
<g>
	<g>
		<g>
			<g>
				<g>
					<g>
						<g>
							<path class="st0" d="M7.999,3.018l1.117,3.178l0.225,0.64l0.678,0.028l3.341,0.139l-2.667,2.211l-0.493,0.409l0.166,0.619
								l0.9,3.359l-2.692-1.89l-0.574-0.403l-0.574,0.403L4.732,13.6l0.901-3.358L5.8,9.622L5.307,9.213L2.641,7.002l3.34-0.139
								l0.677-0.028l0.225-0.64L7.999,3.018 M7.998,0L5.939,5.864L0,6.11l4.668,3.872L3.053,16l4.945-3.471L12.943,16L11.33,9.982
								L16,6.11l-5.941-0.246L7.998,0L7.998,0z"/>
						</g>
					</g>
				</g>
			</g>
		</g>
	</g>
</g>
</svg>
